<svg width="3165" height="600" viewBox="0 0 3165 600" fill="none" xmlns="http://www.w3.org/2000/svg">
<g clip-path="url(#clip0_1_2)">
<path d="M3408 0H13C5.8203 0 0 5.82029 0 13V587C0 594.18 5.82022 600 12.9999 600H3408C3415.18 600 3421 594.18 3421 587V13C3421 5.8203 3415.18 0 3408 0Z" fill="black"/>
<path d="M73.686 456.78L278.132 298.56C283.388 294.48 283.388 287.88 278.132 283.8L187.141 213.66C181.884 209.58 181.884 202.98 187.141 198.9L228 167.28C233.256 163.2 241.785 163.2 247.091 167.28L527.504 383.52C532.76 387.6 532.76 394.2 527.504 398.28L486.645 429.9C481.388 433.98 472.859 433.98 467.554 429.9L371.455 355.8C366.198 351.72 357.669 351.72 352.364 355.8L147.917 514.02C142.661 518.1 134.132 518.1 128.826 514.02L73.686 471.48C68.4298 467.4 68.4298 460.8 73.686 456.72V456.78Z" fill="white"/>
<path d="M138.397 521.16C134.331 521.16 130.215 519.96 127.041 517.5L71.9008 474.96C68.3802 472.26 66.3967 468.3 66.3967 464.16C66.3967 459.96 68.3802 456.06 71.9008 453.3L276.347 295.08C277.884 293.88 278.727 292.5 278.727 291.18C278.727 289.86 277.835 288.42 276.347 287.28L185.355 217.14C181.835 214.44 179.851 210.48 179.851 206.34C179.851 202.14 181.835 198.24 185.355 195.48L226.215 163.86C232.562 158.94 242.579 158.94 248.926 163.86L529.339 380.1C532.86 382.8 534.843 386.76 534.843 390.9C534.843 395.1 532.86 399 529.339 401.76L488.479 433.38C482.132 438.3 472.116 438.3 465.769 433.38L369.669 359.28C365.504 356.04 358.413 356.04 354.248 359.28L149.802 517.5C146.628 519.96 142.512 521.22 138.397 521.22V521.16ZM237.521 168.3C234.694 168.3 231.868 169.14 229.785 170.7L188.926 202.32C187.388 203.52 186.545 204.9 186.545 206.22C186.545 207.54 187.438 208.98 188.926 210.12L279.917 280.26C283.438 282.96 285.421 286.92 285.421 291.06C285.421 295.26 283.438 299.16 279.917 301.92L75.4711 460.14C73.9835 461.34 73.0909 462.72 73.0909 464.04C73.0909 465.36 73.9835 466.8 75.4711 467.94L130.612 510.48C134.777 513.72 141.868 513.72 146.033 510.48L350.479 352.26C356.826 347.34 366.843 347.34 373.19 352.26L469.289 426.36C473.455 429.6 480.545 429.6 484.711 426.36L525.57 394.74C527.107 393.54 527.95 392.16 527.95 390.84C527.95 389.52 527.058 388.08 525.57 386.94L245.207 170.7C243.124 169.08 240.298 168.3 237.521 168.3Z" fill="white"/>
<path d="M73.686 415.68L278.132 257.46C283.388 253.38 283.388 246.78 278.132 242.7L187.141 172.56C181.884 168.48 181.884 161.88 187.141 157.8L228 126.18C233.256 122.1 241.785 122.1 247.091 126.18L527.504 342.42C532.76 346.5 532.76 353.1 527.504 357.18L486.645 388.8C481.388 392.88 472.859 392.88 467.554 388.8L371.455 314.7C366.198 310.62 357.669 310.62 352.364 314.7L147.917 472.92C142.661 477 134.132 477 128.826 472.92L73.686 430.38C68.4298 426.3 68.4298 419.7 73.686 415.62V415.68Z" fill="black"/>
<path d="M138.397 480.12C134.331 480.12 130.215 478.92 127.041 476.46L71.9008 433.92C68.3802 431.22 66.3967 427.26 66.3967 423.12C66.3967 418.92 68.3802 415.02 71.9008 412.26L276.347 254.04C277.884 252.84 278.727 251.46 278.727 250.14C278.727 248.82 277.835 247.38 276.347 246.24L185.355 176.1C181.835 173.4 179.851 169.44 179.851 165.3C179.851 161.1 181.835 157.2 185.355 154.44L226.215 122.82C232.562 117.9 242.579 117.9 248.926 122.82L529.339 339.06C532.86 341.76 534.843 345.72 534.843 349.86C534.843 354.06 532.86 357.96 529.339 360.72L488.479 392.34C482.132 397.26 472.116 397.26 465.769 392.34L369.669 318.24C365.504 315 358.413 315 354.248 318.24L149.802 476.46C146.628 478.92 142.512 480.18 138.397 480.18V480.12ZM237.521 127.26C234.694 127.26 231.868 128.1 229.785 129.66L188.926 161.28C187.388 162.48 186.545 163.86 186.545 165.18C186.545 166.5 187.438 167.94 188.926 169.08L279.917 239.22C283.438 241.92 285.421 245.88 285.421 250.02C285.421 254.22 283.438 258.12 279.917 260.88L75.4711 419.1C73.9835 420.3 73.0909 421.68 73.0909 423C73.0909 424.32 73.9835 425.76 75.4711 426.9L130.612 469.44C134.777 472.68 141.868 472.68 146.033 469.44L350.479 311.22C356.826 306.3 366.843 306.3 373.19 311.22L469.289 385.32C473.455 388.56 480.545 388.56 484.711 385.32L525.57 353.7C527.107 352.5 527.95 351.12 527.95 349.8C527.95 348.48 527.058 347.04 525.57 345.9L245.207 129.66C243.124 128.04 240.298 127.26 237.521 127.26Z" fill="black"/>
<path d="M73.686 374.64L278.132 216.42C283.388 212.34 283.388 205.74 278.132 201.66L187.141 131.52C181.884 127.44 181.884 120.84 187.141 116.76L228 85.14C233.256 81.06 241.785 81.06 247.091 85.14L527.504 301.38C532.76 305.46 532.76 312.06 527.504 316.14L486.645 347.76C481.388 351.84 472.859 351.84 467.554 347.76L371.455 273.66C366.198 269.58 357.669 269.58 352.364 273.66L147.917 431.88C142.661 435.96 134.132 435.96 128.826 431.88L73.686 389.34C68.4298 385.26 68.4298 378.66 73.686 374.58V374.64Z" fill="white"/>
<path d="M138.397 439.02C134.331 439.02 130.215 437.82 127.041 435.36L71.9008 392.82C68.3802 390.12 66.3967 386.16 66.3967 382.02C66.3967 377.82 68.3802 373.92 71.9008 371.16L276.347 212.94C277.884 211.74 278.727 210.36 278.727 209.04C278.727 207.72 277.835 206.28 276.347 205.14L185.355 135C181.835 132.3 179.851 128.34 179.851 124.2C179.851 120 181.835 116.1 185.355 113.34L226.215 81.72C232.562 76.8 242.579 76.8 248.926 81.72L529.339 297.96C532.86 300.66 534.843 304.62 534.843 308.76C534.843 312.96 532.86 316.86 529.339 319.62L488.479 351.24C482.132 356.16 472.116 356.16 465.769 351.24L369.669 277.14C365.504 273.9 358.413 273.9 354.248 277.14L149.802 435.36C146.628 437.82 142.512 439.08 138.397 439.08V439.02ZM237.521 86.22C234.694 86.22 231.868 87.06 229.785 88.62L188.926 120.24C187.388 121.44 186.545 122.82 186.545 124.14C186.545 125.46 187.438 126.9 188.926 128.04L279.917 198.18C283.438 200.88 285.421 204.84 285.421 208.98C285.421 213.18 283.438 217.08 279.917 219.84L75.4711 378.06C73.9835 379.26 73.0909 380.64 73.0909 381.96C73.0909 383.28 73.9835 384.72 75.4711 385.86L130.612 428.4C134.777 431.64 141.868 431.64 146.033 428.4L350.479 270.18C356.826 265.26 366.843 265.26 373.19 270.18L469.289 344.28C473.455 347.52 480.545 347.52 484.711 344.28L525.57 312.66C527.107 311.46 527.95 310.08 527.95 308.76C527.95 307.44 527.058 306 525.57 304.86L245.207 88.62C243.124 87 240.298 86.22 237.521 86.22Z" fill="white"/>
<path d="M851 136V196.116H770.194V444H695.868V196.116H615V136H851Z" fill="white"/>
<path d="M1136.72 339.429H972.204C973.362 354.599 978.054 366.196 986.462 374.22C994.81 382.244 1005.11 386.256 1017.29 386.256C1035.45 386.256 1048.06 378.357 1055.13 362.623H1132.52C1128.56 378.671 1121.37 393.089 1111.07 405.94C1100.71 418.791 1087.73 428.821 1072.19 436.092C1056.59 443.364 1039.17 447 1019.91 447C996.699 447 975.982 441.922 957.824 431.704C939.667 421.486 925.53 406.943 915.294 387.949C905.118 369.017 900 346.826 900 321.5C900 296.174 905.057 273.983 915.111 255.051C925.165 236.12 939.24 221.514 957.398 211.296C975.556 201.078 996.333 196 1019.85 196C1043.37 196 1063.24 200.952 1081.03 210.857C1098.88 220.761 1112.84 234.929 1122.89 253.296C1132.94 271.664 1138 293.103 1138 317.551C1138 324.572 1137.57 331.843 1136.72 339.429ZM1063.6 297.867C1063.6 285.016 1059.34 274.861 1050.87 267.275C1042.4 259.69 1031.73 255.929 1019 255.929C1006.27 255.929 996.516 259.565 988.168 266.837C979.821 274.108 974.642 284.452 972.631 297.867H1063.6Z" fill="white"/>
<path d="M1276 119V444H1202V119H1276Z" fill="white"/>
<path d="M1397.36 431.704C1378.28 421.486 1363.33 406.943 1352.39 387.949C1341.5 369.017 1336 346.826 1336 321.5C1336 296.174 1341.5 274.359 1352.57 255.24C1363.65 236.183 1378.78 221.514 1397.92 211.296C1417.12 201.078 1438.64 196 1462.47 196C1486.3 196 1507.81 201.078 1527.08 211.296C1546.28 221.514 1561.42 236.183 1572.43 255.24C1583.5 274.359 1589 296.425 1589 321.5C1589 346.575 1583.37 368.641 1572.18 387.76C1560.98 406.88 1545.72 421.486 1526.33 431.704C1507 441.922 1485.36 447 1461.53 447C1437.7 447 1416.25 441.922 1397.17 431.704H1397.36ZM1498.12 366.572C1508.13 356.103 1513.19 341.058 1513.19 321.563C1513.19 302.067 1508.32 287.022 1498.56 276.49C1488.8 266.022 1476.79 260.756 1462.53 260.756C1448.27 260.756 1435.95 265.959 1426.32 276.302C1416.75 286.646 1411.93 301.753 1411.93 321.563C1411.93 341.372 1416.62 356.103 1426.13 366.572C1435.57 377.041 1447.46 382.307 1461.72 382.307C1475.98 382.307 1488.11 377.041 1498.18 366.572H1498.12Z" fill="white"/>
<path d="M1754.11 206.414C1766.98 199.43 1781.99 196 1799.25 196C1819.41 196 1837.68 201.051 1854.01 211.216C1870.33 221.381 1883.27 235.848 1892.75 254.743C1902.23 273.576 1907 295.464 1907 320.408C1907 345.352 1902.23 367.303 1892.75 386.323C1883.27 405.343 1870.33 419.997 1854.01 430.287C1837.68 440.576 1819.41 445.752 1799.25 445.752C1782.3 445.752 1767.36 442.26 1754.36 435.338C1741.36 428.354 1731.19 419.374 1723.91 408.336V558H1649V199.555H1723.91V233.915C1731.19 222.628 1741.3 213.461 1754.11 206.476V206.414ZM1815.2 276.694C1804.84 266.093 1792.03 260.792 1776.9 260.792C1761.77 260.792 1749.4 266.155 1739.04 276.881C1728.68 287.607 1723.47 302.261 1723.47 320.845C1723.47 339.428 1728.68 354.083 1739.04 364.809C1749.4 375.535 1762.02 380.897 1776.9 380.897C1791.78 380.897 1804.47 375.472 1815.01 364.559C1825.5 353.709 1830.77 338.992 1830.77 320.408C1830.77 301.825 1825.56 287.295 1815.2 276.694Z" fill="white"/>
<path d="M2185.89 224.206C2202.63 242.78 2211 268.341 2211 300.829V444H2137.47V310.902C2137.47 294.533 2133.31 281.752 2124.94 272.686C2116.57 263.619 2105.35 259.086 2091.22 259.086C2077.08 259.086 2065.86 263.619 2057.49 272.686C2049.12 281.752 2044.97 294.533 2044.97 310.902V444H1971V119H2044.97V231.887C2052.47 221.058 2062.7 212.433 2075.66 205.948C2088.61 199.526 2103.18 196.315 2119.36 196.315C2147.02 196.315 2169.21 205.633 2185.95 224.206H2185.89Z" fill="white"/>
<path d="M2285.92 255.051C2295.18 236.12 2307.82 221.514 2323.76 211.296C2339.71 201.078 2357.55 196 2377.24 196C2394.04 196 2408.82 199.51 2421.52 206.469C2434.21 213.49 2443.97 222.642 2450.83 234.051V199.51H2524V443.552H2450.83V409.011C2443.72 420.358 2433.79 429.573 2421.09 436.531C2408.4 443.489 2393.61 447 2376.81 447C2357.43 447 2339.71 441.86 2323.76 431.454C2307.75 421.11 2295.18 406.379 2285.92 387.259C2276.66 368.139 2272 346.073 2272 320.999C2272 295.924 2276.66 273.92 2285.92 254.989V255.051ZM2435.69 277.368C2425.57 266.586 2413.24 261.195 2398.71 261.195C2384.17 261.195 2371.84 266.523 2361.72 277.18C2351.6 287.837 2346.51 302.506 2346.51 321.124C2346.51 339.742 2351.6 354.599 2361.72 365.506C2371.84 376.414 2384.17 381.931 2398.71 381.931C2413.24 381.931 2425.57 376.539 2435.69 365.757C2445.81 354.975 2450.9 340.244 2450.9 321.563C2450.9 302.882 2445.81 288.15 2435.69 277.368Z" fill="white"/>
<path d="M2642.46 436.09C2625.87 428.816 2612.79 418.784 2603.15 406.118C2593.51 393.452 2588.13 379.218 2587 363.48H2660.8C2661.67 371.945 2665.62 378.779 2672.56 384.046C2679.51 389.313 2688.15 391.947 2698.35 391.947C2707.68 391.947 2714.88 390.128 2719.95 386.492C2725.02 382.855 2727.58 378.089 2727.58 372.258C2727.58 365.235 2723.95 360.094 2716.69 356.708C2709.43 353.384 2697.6 349.622 2681.33 345.547C2663.86 341.471 2649.28 337.144 2637.64 332.63C2626 328.115 2615.98 320.967 2607.53 311.185C2599.08 301.404 2594.89 288.236 2594.89 271.62C2594.89 257.637 2598.77 244.846 2606.47 233.371C2614.17 221.834 2625.49 212.742 2640.52 206.032C2655.48 199.323 2673.32 196 2693.97 196C2724.52 196 2748.61 203.587 2766.27 218.761C2783.85 233.935 2793.99 254.063 2796.62 279.144H2727.65C2726.46 270.679 2722.76 263.97 2716.5 259.016C2710.25 254.063 2702.05 251.555 2691.84 251.555C2683.14 251.555 2676.38 253.248 2671.75 256.571C2667.12 259.957 2664.74 264.534 2664.74 270.366C2664.74 277.388 2668.43 282.593 2675.88 286.104C2683.33 289.616 2694.85 293.127 2710.62 296.576C2728.65 301.216 2743.36 305.856 2754.75 310.37C2766.08 314.885 2776.09 322.158 2784.67 332.254C2793.24 342.286 2797.69 355.83 2798 372.697C2798 386.993 2793.99 399.722 2785.98 410.946C2777.97 422.17 2766.45 431.011 2751.49 437.406C2736.47 443.802 2719.13 447 2699.29 447C2678.01 447 2659.11 443.363 2642.52 436.09H2642.46Z" fill="white"/>
<path d="M3093.68 339.429H2923.63C2924.83 354.599 2929.68 366.196 2938.37 374.22C2947 382.244 2957.64 386.256 2970.24 386.256C2989 386.256 3002.04 378.357 3009.35 362.623H3089.33C3085.24 378.671 3077.81 393.089 3067.16 405.94C3056.46 418.791 3043.04 428.821 3026.98 436.092C3010.86 443.364 2992.85 447 2972.94 447C2948.95 447 2927.54 441.922 2908.77 431.704C2890 421.486 2875.39 406.943 2864.81 387.949C2854.29 369.017 2849 346.826 2849 321.5C2849 296.174 2854.23 273.983 2864.62 255.051C2875.01 236.12 2889.56 221.514 2908.33 211.296C2927.1 201.078 2948.57 196 2972.88 196C2997.19 196 3017.72 200.952 3036.11 210.857C3054.57 220.761 3068.99 234.929 3079.38 253.296C3089.77 271.664 3095 293.103 3095 317.551C3095 324.572 3094.56 331.843 3093.68 339.429ZM3018.1 297.867C3018.1 285.016 3013.69 274.861 3004.94 267.275C2996.18 259.69 2985.16 255.929 2972 255.929C2958.84 255.929 2948.76 259.565 2940.13 266.837C2931.5 274.108 2926.15 284.452 2924.07 297.867H3018.1Z" fill="white"/>
</g>
<defs>
<clipPath id="clip0_1_2">
<rect width="3165" height="600" fill="white"/>
</clipPath>
</defs>
</svg>
