<svg width="735" height="130" viewBox="0 0 735 130" fill="none" xmlns="http://www.w3.org/2000/svg">
<g clip-path="url(#clip0_1_2)">
<path d="M781 -262H-371V221H781V-262Z" fill="white"/>
<path d="M196 19V33.0531H177.168V91H159.846V33.0531H141V19H196Z" fill="black"/>
<path d="M262.699 66.7143H223.989C224.262 70.2802 225.366 73.0062 227.344 74.8924C229.308 76.7785 231.731 77.7215 234.599 77.7215C238.871 77.7215 241.839 75.8649 243.502 72.1663H261.71C260.778 75.9386 259.086 79.3277 256.663 82.3484C254.226 85.3691 251.172 87.7268 247.516 89.4361C243.846 91.1453 239.746 92 235.215 92C229.753 92 224.878 90.8064 220.606 88.4046C216.333 86.0027 213.007 82.5842 210.599 78.1194C208.204 73.6693 207 68.453 207 62.5C207 56.547 208.19 51.3307 210.556 46.8806C212.921 42.4306 216.233 38.9973 220.505 36.5954C224.778 34.1936 229.667 33 235.201 33C240.735 33 245.409 34.1641 249.595 36.4923C253.796 38.8204 257.079 42.1506 259.444 46.468C261.81 50.7855 263 55.8249 263 61.5717C263 63.222 262.9 64.9313 262.699 66.7143ZM245.495 56.9448C245.495 53.9241 244.491 51.537 242.498 49.754C240.505 47.971 237.996 47.0869 235 47.0869C232.004 47.0869 229.71 47.9416 227.746 49.6509C225.781 51.3601 224.563 53.7915 224.09 56.9448H245.495Z" fill="black"/>
<path d="M295 15V91H278V15H295Z" fill="black"/>
<path d="M323.309 88.4046C318.86 86.0027 315.374 82.5842 312.821 78.1194C310.284 73.6693 309 68.453 309 62.5C309 56.547 310.284 51.4191 312.865 46.9248C315.447 42.4453 318.977 38.9973 323.44 36.5954C327.918 34.1936 332.935 33 338.493 33C344.05 33 349.068 34.1936 353.56 36.5954C358.038 38.9973 361.568 42.4453 364.135 46.9248C366.716 51.4191 368 56.6059 368 62.5C368 68.3941 366.687 73.5809 364.076 78.0752C361.466 82.5694 357.907 86.0027 353.385 88.4046C348.878 90.8064 343.831 92 338.274 92C332.717 92 327.714 90.8064 323.265 88.4046H323.309ZM346.807 73.0947C349.14 70.6339 350.322 67.0974 350.322 62.5147C350.322 57.9321 349.184 54.3956 346.909 51.9201C344.633 49.4593 341.833 48.2215 338.507 48.2215C335.182 48.2215 332.308 49.4446 330.062 51.8759C327.83 54.3072 326.707 57.8584 326.707 62.5147C326.707 67.1711 327.801 70.6339 330.018 73.0947C332.221 75.5554 334.992 76.7932 338.318 76.7932C341.643 76.7932 344.473 75.5554 346.821 73.0947H346.807Z" fill="black"/>
<path d="M406.444 35.4453C409.437 33.8053 412.927 33 416.943 33C421.63 33 425.879 34.186 429.676 36.5728C433.472 38.9595 436.48 42.3566 438.685 46.7933C440.89 51.2153 442 56.3549 442 62.2119C442 68.0689 440.89 73.2231 438.685 77.6891C436.48 82.155 433.472 85.596 429.676 88.0121C425.879 90.4281 421.63 91.6434 416.943 91.6434C413 91.6434 409.525 90.8234 406.502 89.1981C403.48 87.5581 401.114 85.4496 399.42 82.8579V118H382V33.8346H399.42V41.9027C401.114 39.2524 403.465 37.0999 406.444 35.4599V35.4453ZM420.652 51.9475C418.242 49.4582 415.264 48.2136 411.744 48.2136C408.225 48.2136 405.349 49.4729 402.939 51.9914C400.53 54.5099 399.318 57.9509 399.318 62.3144C399.318 66.6779 400.53 70.1189 402.939 72.6374C405.349 75.1559 408.284 76.4152 411.744 76.4152C415.205 76.4152 418.155 75.1413 420.608 72.5788C423.046 70.031 424.273 66.5754 424.273 62.2119C424.273 57.8484 423.061 54.4367 420.652 51.9475Z" fill="black"/>
<path d="M507.141 39.6021C511.047 43.9454 513 49.9229 513 57.52V91H495.843V59.8756C495.843 56.0477 494.873 53.0589 492.92 50.9388C490.967 48.8187 488.349 47.7586 485.051 47.7586C481.752 47.7586 479.134 48.8187 477.181 50.9388C475.228 53.0589 474.259 56.0477 474.259 59.8756V91H457V15H474.259V41.3983C476.009 38.8659 478.396 36.8489 481.42 35.3324C484.443 33.8307 487.843 33.0798 491.618 33.0798C498.071 33.0798 503.25 35.2588 507.156 39.6021H507.141Z" fill="black"/>
<path d="M530.259 46.8806C532.428 42.4306 535.385 38.9973 539.119 36.5954C542.852 34.1936 547.03 33 551.64 33C555.574 33 559.034 33.8252 562.007 35.4608C564.979 37.1111 567.262 39.2625 568.87 41.9443V33.8252H586V91.1896H568.87V83.0704C567.204 85.7375 564.878 87.9036 561.906 89.5392C558.934 91.1748 555.473 92 551.539 92C547.002 92 542.852 90.7917 539.119 88.3456C535.371 85.9143 532.428 82.4515 530.259 77.9573C528.091 73.463 527 68.2762 527 62.3821C527 56.488 528.091 51.3159 530.259 46.8659V46.8806ZM565.323 52.1264C562.954 49.5919 560.068 48.3247 556.665 48.3247C553.262 48.3247 550.376 49.5772 548.007 52.0822C545.638 54.5872 544.446 58.0352 544.446 62.4116C544.446 66.788 545.638 70.2802 548.007 72.8442C550.376 75.4081 553.262 76.7048 556.665 76.7048C560.068 76.7048 562.954 75.4376 565.323 72.9031C567.693 70.3686 568.884 66.9058 568.884 62.5147C568.884 58.1236 567.693 54.6608 565.323 52.1264Z" fill="black"/>
<path d="M613.879 89.4354C610.027 87.7257 606.989 85.3675 604.75 82.3902C602.512 79.4129 601.262 76.0672 601 72.3677H618.138C618.341 74.3575 619.257 75.964 620.87 77.2021C622.484 78.4402 624.49 79.0592 626.859 79.0592C629.025 79.0592 630.697 78.6318 631.874 77.7769C633.051 76.9221 633.647 75.8019 633.647 74.4312C633.647 72.7804 632.804 71.5718 631.118 70.7759C629.432 69.9948 626.685 69.1104 622.905 68.1524C618.85 67.1944 615.463 66.1774 612.759 65.1162C610.056 64.055 607.73 62.3747 605.768 60.0754C603.805 57.7762 602.831 54.681 602.831 50.7752C602.831 47.4884 603.733 44.4816 605.521 41.7844C607.308 39.0724 609.939 36.9353 613.428 35.3582C616.902 33.7812 621.045 33 625.842 33C632.935 33 638.531 34.7834 642.63 38.3502C646.715 41.9171 649.07 46.6483 649.68 52.5438H633.662C633.386 50.5541 632.528 48.977 631.074 47.8126C629.621 46.6483 627.717 46.0587 625.347 46.0587C623.327 46.0587 621.757 46.4567 620.681 47.2378C619.606 48.0337 619.053 49.1097 619.053 50.4804C619.053 52.1312 619.911 53.3545 621.641 54.1799C623.37 55.0052 626.045 55.8306 629.708 56.6413C633.894 57.732 637.31 58.8226 639.956 59.8838C642.587 60.945 644.912 62.6548 646.904 65.0277C648.895 67.386 649.927 70.5696 650 74.5343C650 77.8948 649.07 80.8868 647.209 83.5251C645.349 86.1634 642.674 88.2416 639.2 89.7449C635.711 91.2483 631.685 92 627.077 92C622.135 92 617.745 91.1451 613.893 89.4354H613.879Z" fill="black"/>
<path d="M718.694 66.7143H679.293C679.57 70.2802 680.694 73.0062 682.707 74.8924C684.707 76.7785 687.173 77.7215 690.091 77.7215C694.44 77.7215 697.461 75.8649 699.154 72.1663H717.687C716.738 75.9386 715.016 79.3277 712.55 82.3484C710.069 85.3691 706.961 87.7268 703.24 89.4361C699.504 91.1453 695.33 92 690.719 92C685.159 92 680.197 90.8064 675.849 88.4046C671.5 86.0027 668.114 82.5842 665.663 78.1194C663.226 73.6693 662 68.453 662 62.5C662 56.547 663.211 51.3307 665.619 46.8806C668.027 42.4306 671.398 38.9973 675.747 36.5954C680.095 34.1936 685.071 33 690.704 33C696.337 33 701.094 34.1641 705.356 36.4923C709.631 38.8204 712.973 42.1506 715.381 46.468C717.789 50.7855 719 55.8249 719 61.5717C719 63.222 718.898 64.9313 718.694 66.7143ZM701.182 56.9448C701.182 53.9241 700.161 51.537 698.132 49.754C696.104 47.971 693.55 47.0869 690.5 47.0869C687.45 47.0869 685.115 47.9416 683.116 49.6509C681.117 51.3601 679.876 53.7915 679.395 56.9448H701.182Z" fill="black"/>
<path d="M9.92214 88.3542L57.7456 55.1731C58.9751 54.3175 58.9751 52.9333 57.7456 52.0777L36.4611 37.3683C35.2316 36.5127 35.2316 35.1286 36.4611 34.2729L46.0188 27.6417C47.2483 26.7861 49.2434 26.7861 50.4845 27.6417L116.078 72.9905C117.307 73.8461 117.307 75.2302 116.078 76.0859L106.52 82.7171C105.291 83.5727 103.296 83.5727 102.054 82.7171L79.5752 67.1772C78.3457 66.3215 76.3507 66.3215 75.1095 67.1772L27.2861 100.358C26.0566 101.214 24.0615 101.214 22.8204 100.358L9.92214 91.437C8.69262 90.5814 8.69262 89.1973 9.92214 88.3416V88.3542Z" fill="black"/>
<path d="M24.907 100.988C23.9522 100.988 22.9857 100.738 22.2405 100.227L9.29247 91.3905C8.46576 90.8297 8 90.0071 8 89.1471C8 88.2746 8.46576 87.4645 9.29247 86.8912L57.3003 54.0245C57.6613 53.7752 57.8592 53.4886 57.8592 53.2144C57.8592 52.9402 57.6496 52.641 57.3003 52.4042L35.9337 37.8342C35.107 37.2734 34.6413 36.4508 34.6413 35.5908C34.6413 34.7183 35.107 33.9082 35.9337 33.3349L45.5283 26.7665C47.0187 25.7445 49.3708 25.7445 50.8612 26.7665L116.708 71.6855C117.534 72.2464 118 73.069 118 73.929C118 74.8014 117.534 75.6115 116.708 76.1849L107.113 82.7532C105.623 83.7752 103.27 83.7752 101.78 82.7532L79.2141 67.3606C78.2361 66.6876 76.571 66.6876 75.5929 67.3606L27.5851 100.227C26.8398 100.738 25.8734 101 24.907 101V100.988ZM48.1831 27.6888C47.5194 27.6888 46.8557 27.8633 46.3667 28.1874L36.7721 34.7557C36.4111 35.005 36.2132 35.2917 36.2132 35.5659C36.2132 35.8401 36.4228 36.1392 36.7721 36.376L58.1387 50.946C58.9654 51.5069 59.4311 52.3295 59.4311 53.1894C59.4311 54.0619 58.9654 54.872 58.1387 55.4454L10.1308 88.312C9.78152 88.5613 9.57193 88.8479 9.57193 89.1221C9.57193 89.3963 9.78152 89.6955 10.1308 89.9323L23.0789 98.769C24.0569 99.442 25.722 99.442 26.7001 98.769L74.7079 65.9024C76.1984 64.8803 78.5504 64.8803 80.0409 65.9024L102.607 81.295C103.585 81.968 105.25 81.968 106.228 81.295L115.823 74.7266C116.184 74.4774 116.382 74.1907 116.382 73.9165C116.382 73.6423 116.172 73.3432 115.823 73.1064L49.9879 28.1874C49.4989 27.8509 48.8352 27.6888 48.1831 27.6888Z" fill="black"/>
<path d="M9.92214 79.5251L57.7456 46.7924C58.9751 45.9483 58.9751 44.5829 57.7456 43.7388L36.4611 29.2282C35.2316 28.3841 35.2316 27.0187 36.4611 26.1746L46.0188 19.6331C47.2483 18.789 49.2434 18.789 50.4845 19.6331L116.078 64.369C117.307 65.2131 117.307 66.5785 116.078 67.4225L106.52 73.9641C105.291 74.8082 103.296 74.8082 102.054 73.9641L79.5752 58.6342C78.3457 57.7902 76.3507 57.7902 75.1095 58.6342L27.2861 91.367C26.0566 92.211 24.0615 92.211 22.8204 91.367L9.92214 82.5662C8.69262 81.7222 8.69262 80.3567 9.92214 79.5127V79.5251Z" fill="white"/>
<path d="M24.907 93.9874C23.9522 93.9874 22.9857 93.7348 22.2405 93.217L9.29247 84.2624C8.46576 83.6941 8 82.8605 8 81.989C8 81.1049 8.46576 80.284 9.29247 79.703L57.3003 46.3982C57.6613 46.1456 57.8592 45.8551 57.8592 45.5772C57.8592 45.2994 57.6496 44.9963 57.3003 44.7563L35.9337 29.992C35.107 29.4237 34.6413 28.5901 34.6413 27.7187C34.6413 26.8346 35.107 26.0136 35.9337 25.4327L45.5283 18.7767C47.0187 17.7411 49.3708 17.7411 50.8612 18.7767L116.708 64.2946C117.534 64.863 118 65.6966 118 66.568C118 67.4521 117.534 68.273 116.708 68.854L107.113 75.5099C105.623 76.5456 103.27 76.5456 101.78 75.5099L79.2141 59.9121C78.2361 59.2301 76.571 59.2301 75.5929 59.9121L27.5851 93.217C26.8398 93.7348 25.8734 94 24.907 94V93.9874ZM48.1831 19.7113C47.5194 19.7113 46.8557 19.8882 46.3667 20.2165L36.7721 26.8725C36.4111 27.1251 36.2132 27.4155 36.2132 27.6934C36.2132 27.9713 36.4228 28.2744 36.7721 28.5143L58.1387 43.2786C58.9654 43.8469 59.4311 44.6805 59.4311 45.552C59.4311 46.4361 58.9654 47.257 58.1387 47.838L10.1308 81.1428C9.78152 81.3954 9.57193 81.6859 9.57193 81.9638C9.57193 82.2416 9.78152 82.5447 10.1308 82.7847L23.0789 91.7393C24.0569 92.4213 25.722 92.4213 26.7001 91.7393L74.7079 58.4344C76.1984 57.3988 78.5504 57.3988 80.0409 58.4344L102.607 74.0322C103.585 74.7143 105.25 74.7143 106.228 74.0322L115.823 67.3763C116.184 67.1237 116.382 66.8332 116.382 66.5554C116.382 66.2775 116.172 65.9744 115.823 65.7344L49.9879 20.2165C49.4989 19.8755 48.8352 19.7113 48.1831 19.7113Z" fill="white"/>
<path d="M9.92214 70.5251L57.7456 37.7924C58.9751 36.9483 58.9751 35.5829 57.7456 34.7388L36.4611 20.2282C35.2316 19.3841 35.2316 18.0187 36.4611 17.1746L46.0188 10.6331C47.2483 9.78898 49.2434 9.78898 50.4845 10.6331L116.078 55.369C117.307 56.2131 117.307 57.5785 116.078 58.4225L106.52 64.9641C105.291 65.8082 103.296 65.8082 102.054 64.9641L79.5752 49.6342C78.3457 48.7902 76.3507 48.7902 75.1095 49.6342L27.2861 82.3669C26.0566 83.211 24.0615 83.211 22.8204 82.3669L9.92214 73.5662C8.69262 72.7222 8.69262 71.3567 9.92214 70.5127V70.5251Z" fill="black"/>
<path d="M24.907 83.9875C23.9522 83.9875 22.9857 83.7383 22.2405 83.2273L9.29247 74.3905C8.46576 73.8297 8 73.0071 8 72.1471C8 71.2746 8.46576 70.4645 9.29247 69.8912L57.3003 37.0245C57.6613 36.7752 57.8592 36.4886 57.8592 36.2144C57.8592 35.9402 57.6496 35.6411 57.3003 35.4042L35.9337 20.8342C35.107 20.2734 34.6413 19.4508 34.6413 18.5908C34.6413 17.7183 35.107 16.9082 35.9337 16.3349L45.5283 9.76651C47.0187 8.7445 49.3708 8.7445 50.8612 9.76651L116.708 54.6855C117.534 55.2464 118 56.069 118 56.929C118 57.8014 117.534 58.6116 116.708 59.1849L107.113 65.7532C105.623 66.7752 103.27 66.7752 101.78 65.7532L79.2141 50.3606C78.2361 49.6876 76.571 49.6876 75.5929 50.3606L27.5851 83.2273C26.8398 83.7383 25.8734 84 24.907 84V83.9875ZM48.1831 10.7013C47.5194 10.7013 46.8557 10.8758 46.3667 11.1998L36.7721 17.7682C36.4111 18.0175 36.2132 18.3041 36.2132 18.5783C36.2132 18.8525 36.4228 19.1516 36.7721 19.3885L58.1387 33.9585C58.9654 34.5193 59.4311 35.3419 59.4311 36.2019C59.4311 37.0744 58.9654 37.8845 58.1387 38.4578L10.1308 71.3245C9.78152 71.5737 9.57193 71.8604 9.57193 72.1346C9.57193 72.4088 9.78152 72.7079 10.1308 72.9447L23.0789 81.7815C24.0569 82.4545 25.722 82.4545 26.7001 81.7815L74.7079 48.9148C76.1984 47.8928 78.5504 47.8928 80.0409 48.9148L102.607 64.3074C103.585 64.9805 105.25 64.9805 106.228 64.3074L115.823 57.7391C116.184 57.4898 116.382 57.2032 116.382 56.929C116.382 56.6548 116.172 56.3556 115.823 56.1188L49.9879 11.1998C49.4989 10.8633 48.8352 10.7013 48.1831 10.7013Z" fill="black"/>
</g>
<defs>
<clipPath id="clip0_1_2">
<rect width="735" height="130" fill="white"/>
</clipPath>
</defs>
</svg>
